<svg xmlns:xlink="http://www.w3.org/1999/xlink" xmlns="http://www.w3.org/2000/svg" viewBox="0 0 25 25" width="25"  height="25" ><path d="M12.499 5.668l7.892 4.734-7.892 4.647-7.892-4.651 7.892-4.734v.004zm-9.948 5.639l9.42 5.551a1.046 1.046 0 001.058 0l9.42-5.551a1.04 1.04 0 00.007-1.791l-9.42-5.652a1.042 1.042 0 00-1.072 0L2.543 9.516a1.042 1.042 0 00.008 1.791zM22.276 17.54l1.142-2.957h-3.025l.634 1-5.221 3.213-.583-.915-1.141 2.952h3.025l-.6-.943 5.221-3.213.548.863zM10.918 20.833l-1.142-2.957-.549.863-5.221-3.213.6-.943H1.582l1.142 2.957.583-.915 5.221 3.213-.634 1 3.024-.005z" fill="#1F1F1F"></path></svg>