<svg xmlns:xlink="http://www.w3.org/1999/xlink" xmlns="http://www.w3.org/2000/svg" viewBox="0 0 19 19" width="24"  height="24" ><path fill="none" d="M0 0h19v19H0z"></path><path d="M12.374 16.886v-1.762H6.915v1.762H5.373v-1.818l-.087-.015a5.171 5.171 0 01-4.282-5.11V8.287h1.75V6.419a3.4 3.4 0 016.79-.105H7.996a1.854 1.854 0 00-3.705.105v1.868h14v1.657a5.173 5.173 0 01-4.287 5.109l-.087.015v1.818zM2.54 9.943a3.621 3.621 0 003.6 3.628h7a3.62 3.62 0 003.6-3.628v-.105H2.54z" fill="#1F1F1F"></path></svg>