<svg xmlns:xlink="http://www.w3.org/1999/xlink" xmlns="http://www.w3.org/2000/svg" viewBox="0 0 19 19" width="24"  height="24" ><path fill="none" d="M0 0h19v19H0z"></path><path d="M3.733 15.922l-.7-2.058h-1.3v-4.79a1.744 1.744 0 011.736-1.7h.371V3.931a1.745 1.745 0 011.736-1.7h8.435a1.747 1.747 0 011.745 1.7V7.37h.363a1.748 1.748 0 011.747 1.7v4.789h-1.3l-.7 2.058h-.542l-.7-2.058H4.969l-.7 2.058zm-.617-3.408h13.367v-3.8H3.116zm7.376-5.146h3.883V3.573h-3.883zm-5.268 0h3.887V3.573H5.223z" fill="#1F1F1F"></path><path d="M3.752 15.899l-.7-2.058H1.756V9.076a1.721 1.721 0 011.712-1.677h.394V3.932a1.721 1.721 0 011.713-1.683h8.439a1.724 1.724 0 011.721 1.681v3.463h.387a1.724 1.724 0 011.722 1.681v4.764h-1.291l-.7 2.058h-.507l-.7-2.058H4.952l-.7 2.061zm-.66-3.359h13.414V8.696H3.092zm7.376-5.146H14.4V3.55h-3.932zm-5.268 0h3.932V3.55H5.199z" fill="#1F1F1F"></path></svg>